<?xml version="1.0" encoding="utf-8"?>
<!-- Generator: Adobe Illustrator 19.0.0, SVG Export Plug-In . SVG Version: 6.00 Build 0)  -->
<svg version="1.1" id="Capa_1" xmlns="http://www.w3.org/2000/svg" xmlns:xlink="http://www.w3.org/1999/xlink" x="0px" y="0px"
	 viewBox="0 0 595.3 125.7" style="enable-background:new 0 0 595.3 125.7;" xml:space="preserve">
<style type="text/css">
	.st0{fill:url(#XMLID_27_);}
	.st1{fill:#F3F1F2;}
</style>
<g id="XMLID_1_">
	<linearGradient id="XMLID_27_" gradientUnits="userSpaceOnUse" x1="42.7383" y1="65.5851" x2="98.9453" y2="65.5851">
		<stop  offset="0" style="stop-color:#28B6BE"/>
		<stop  offset="0.2384" style="stop-color:#0FA2A6"/>
		<stop  offset="0.7485" style="stop-color:#007472"/>
		<stop  offset="1" style="stop-color:#005F5B"/>
	</linearGradient>
	<path id="XMLID_2_" class="st0" d="M98.9,23.5L98.9,23.5L98.9,23.5l-28.1,0l0,0.1l0-0.1l-9.4,0l14,42.1l-8.3,25l-2.6,7.8h-9.2
		l9.4-28.1l-9.4,0l-9.5,28.1h0l-3.1,9.2l0,0.1l0,0v0h18.7l0,0h9.4l9.3-28l9.3,28h9.4L84.9,65.6L98.9,23.5z M73.9,32.8h12.4
		l-6.2,18.7L73.9,32.8z"/>
	<g id="XMLID_5_">
		<g id="XMLID_6_">
			<path id="XMLID_7_" class="st1" d="M122.7,91.4v1.5l-10.4-4.7v-1.3l10.4-4.7v1.5l-8.4,3.9L122.7,91.4z"/>
			<path id="XMLID_9_" class="st1" d="M143.4,79.7v15.1H142V93c-0.6,0.7-1.3,1.3-2,1.6c-0.7,0.4-1.5,0.5-2.4,0.5
				c-1.5,0-2.9-0.6-4-1.7c-1.1-1.1-1.7-2.5-1.7-4.1c0-1.6,0.6-2.9,1.7-4c1.1-1.1,2.4-1.7,4-1.7c0.9,0,1.7,0.2,2.4,0.6
				c0.7,0.4,1.4,1,1.9,1.7v-6.2H143.4z M137.8,85c-0.8,0-1.5,0.2-2.2,0.6c-0.7,0.4-1.2,0.9-1.6,1.6c-0.4,0.7-0.6,1.4-0.6,2.2
				c0,0.8,0.2,1.5,0.6,2.2c0.4,0.7,0.9,1.3,1.6,1.6c0.7,0.4,1.4,0.6,2.1,0.6s1.5-0.2,2.2-0.6c0.7-0.4,1.2-0.9,1.6-1.6
				c0.4-0.7,0.6-1.4,0.6-2.2c0-1.3-0.4-2.3-1.3-3.2C140,85.4,139,85,137.8,85z"/>
			<path id="XMLID_12_" class="st1" d="M163,91.2l1.2,0.6c-0.4,0.8-0.8,1.4-1.3,1.8c-0.5,0.5-1.1,0.8-1.7,1.1
				c-0.6,0.3-1.4,0.4-2.2,0.4c-1.8,0-3.2-0.6-4.2-1.8c-1-1.2-1.5-2.5-1.5-4c0-1.4,0.4-2.6,1.3-3.7c1.1-1.4,2.5-2.1,4.3-2.1
				c1.9,0,3.3,0.7,4.5,2.1c0.8,1,1.2,2.2,1.2,3.7h-9.8c0,1.3,0.4,2.3,1.2,3.1c0.8,0.8,1.8,1.2,2.9,1.2c0.6,0,1.1-0.1,1.6-0.3
				c0.5-0.2,1-0.5,1.3-0.8C162.2,92.4,162.6,91.9,163,91.2z M163,88.3c-0.2-0.7-0.5-1.4-0.8-1.8c-0.4-0.4-0.8-0.8-1.4-1.1
				c-0.6-0.3-1.2-0.4-1.9-0.4c-1.1,0-2,0.3-2.8,1c-0.6,0.5-1,1.3-1.3,2.3H163z"/>
			<path id="XMLID_15_" class="st1" d="M179.8,85.1l-0.9,0.9c-0.8-0.7-1.5-1.1-2.2-1.1c-0.5,0-0.8,0.1-1.2,0.5
				c-0.3,0.3-0.5,0.7-0.5,1.1c0,0.3,0.1,0.7,0.4,1c0.3,0.3,0.8,0.7,1.7,1.2c1,0.5,1.8,1.1,2.1,1.6c0.4,0.5,0.6,1.1,0.6,1.7
				c0,0.9-0.3,1.7-0.9,2.3c-0.6,0.6-1.4,0.9-2.4,0.9c-0.6,0-1.2-0.1-1.8-0.4c-0.6-0.3-1.1-0.7-1.4-1.1l0.9-1
				c0.7,0.8,1.5,1.2,2.3,1.2c0.6,0,1-0.2,1.4-0.5c0.4-0.4,0.6-0.8,0.6-1.3c0-0.4-0.1-0.8-0.4-1.1c-0.3-0.3-0.8-0.7-1.8-1.2
				c-1-0.5-1.7-1-2-1.5c-0.4-0.5-0.5-1.1-0.5-1.7c0-0.8,0.3-1.5,0.9-2.1c0.6-0.5,1.3-0.8,2.2-0.8C177.8,83.6,178.8,84.1,179.8,85.1z
				"/>
			<path id="XMLID_17_" class="st1" d="M200.4,83.9v10.9H199V93c-0.6,0.7-1.3,1.3-2,1.6c-0.7,0.4-1.5,0.5-2.4,0.5
				c-1.5,0-2.9-0.6-4-1.7c-1.1-1.1-1.6-2.5-1.6-4.1c0-1.6,0.5-2.9,1.7-4c1.1-1.1,2.4-1.7,4-1.7c0.9,0,1.7,0.2,2.4,0.6
				c0.7,0.4,1.4,1,1.9,1.7v-2H200.4z M194.8,85c-0.8,0-1.5,0.2-2.2,0.6c-0.7,0.4-1.2,0.9-1.6,1.6c-0.4,0.7-0.6,1.4-0.6,2.2
				c0,0.8,0.2,1.5,0.6,2.2c0.4,0.7,0.9,1.3,1.6,1.6c0.7,0.4,1.4,0.6,2.1,0.6c0.8,0,1.5-0.2,2.2-0.6c0.7-0.4,1.2-0.9,1.6-1.6
				c0.4-0.7,0.6-1.4,0.6-2.2c0-1.3-0.4-2.3-1.3-3.2C197,85.4,196,85,194.8,85z"/>
			<path id="XMLID_20_" class="st1" d="M210.2,83.9h1.4v1.6c0.4-0.6,0.9-1.1,1.4-1.4c0.5-0.3,1-0.5,1.5-0.5c0.4,0,0.8,0.1,1.2,0.4
				l-0.7,1.2c-0.3-0.1-0.5-0.2-0.7-0.2c-0.5,0-0.9,0.2-1.4,0.6c-0.4,0.4-0.8,1-1,1.8c-0.2,0.6-0.3,1.9-0.3,3.8v3.7h-1.4V83.9z"/>
			<path id="XMLID_23_" class="st1" d="M223.6,83.9h1.4v1.6c0.4-0.6,0.9-1.1,1.4-1.4c0.5-0.3,1-0.5,1.5-0.5c0.4,0,0.8,0.1,1.3,0.4
				l-0.7,1.2c-0.3-0.1-0.5-0.2-0.7-0.2c-0.5,0-0.9,0.2-1.4,0.6c-0.4,0.4-0.8,1-1,1.8c-0.2,0.6-0.3,1.9-0.3,3.8v3.7h-1.4V83.9z"/>
			<path id="XMLID_25_" class="st1" d="M242.7,83.6c1.7,0,3.1,0.6,4.2,1.8c1,1.1,1.5,2.4,1.5,3.9c0,1.5-0.5,2.9-1.6,4
				c-1.1,1.1-2.4,1.7-4.1,1.7c-1.7,0-3-0.6-4.1-1.7c-1.1-1.1-1.6-2.5-1.6-4c0-1.5,0.5-2.8,1.5-3.9C239.6,84.2,241,83.6,242.7,83.6z
				 M242.7,85c-1.2,0-2.2,0.4-3,1.3c-0.8,0.9-1.3,1.9-1.3,3.1c0,0.8,0.2,1.5,0.6,2.2c0.4,0.7,0.9,1.2,1.6,1.6
				c0.7,0.4,1.4,0.6,2.1,0.6c0.8,0,1.5-0.2,2.1-0.6c0.7-0.4,1.2-0.9,1.6-1.6c0.4-0.7,0.6-1.4,0.6-2.2c0-1.2-0.4-2.3-1.3-3.1
				C244.9,85.4,243.9,85,242.7,85z"/>
			<path id="XMLID_32_" class="st1" d="M258,79.7h1.4v15.1H258V79.7z"/>
			<path id="XMLID_34_" class="st1" d="M269.3,79.7h1.4v15.1h-1.4V79.7z"/>
			<path id="XMLID_36_" class="st1" d="M291.7,83.9v10.9h-1.4V93c-0.6,0.7-1.3,1.3-2,1.6c-0.7,0.4-1.5,0.5-2.4,0.5
				c-1.5,0-2.9-0.6-4-1.7c-1.1-1.1-1.6-2.5-1.6-4.1c0-1.6,0.6-2.9,1.7-4c1.1-1.1,2.4-1.7,4-1.7c0.9,0,1.7,0.2,2.4,0.6
				c0.7,0.4,1.4,1,1.9,1.7v-2H291.7z M286.1,85c-0.8,0-1.5,0.2-2.2,0.6c-0.7,0.4-1.2,0.9-1.6,1.6c-0.4,0.7-0.6,1.4-0.6,2.2
				c0,0.8,0.2,1.5,0.6,2.2c0.4,0.7,0.9,1.3,1.6,1.6c0.7,0.4,1.4,0.6,2.1,0.6c0.8,0,1.5-0.2,2.2-0.6c0.7-0.4,1.2-0.9,1.6-1.6
				c0.4-0.7,0.6-1.4,0.6-2.2c0-1.3-0.4-2.3-1.2-3.2C288.3,85.4,287.3,85,286.1,85z"/>
			<path id="XMLID_39_" class="st1" d="M313,79.7v15.1h-1.4V93c-0.6,0.7-1.2,1.3-2,1.6c-0.7,0.4-1.5,0.5-2.4,0.5
				c-1.5,0-2.9-0.6-4-1.7c-1.1-1.1-1.6-2.5-1.6-4.1c0-1.6,0.6-2.9,1.7-4c1.1-1.1,2.4-1.7,4-1.7c0.9,0,1.7,0.2,2.4,0.6
				c0.7,0.4,1.4,1,1.9,1.7v-6.2H313z M307.4,85c-0.8,0-1.5,0.2-2.2,0.6c-0.7,0.4-1.2,0.9-1.6,1.6c-0.4,0.7-0.6,1.4-0.6,2.2
				c0,0.8,0.2,1.5,0.6,2.2c0.4,0.7,0.9,1.3,1.6,1.6c0.7,0.4,1.4,0.6,2.1,0.6c0.8,0,1.5-0.2,2.2-0.6c0.7-0.4,1.2-0.9,1.6-1.6
				c0.4-0.7,0.6-1.4,0.6-2.2c0-1.3-0.4-2.3-1.2-3.2C309.6,85.4,308.6,85,307.4,85z"/>
			<path id="XMLID_42_" class="st1" d="M328.5,83.6c1.7,0,3.1,0.6,4.2,1.8c1,1.1,1.5,2.4,1.5,3.9c0,1.5-0.5,2.9-1.6,4
				c-1.1,1.1-2.4,1.7-4.1,1.7c-1.7,0-3-0.6-4.1-1.7c-1.1-1.1-1.6-2.5-1.6-4c0-1.5,0.5-2.8,1.5-3.9C325.5,84.2,326.8,83.6,328.5,83.6
				z M328.5,85c-1.2,0-2.2,0.4-3,1.3c-0.8,0.9-1.3,1.9-1.3,3.1c0,0.8,0.2,1.5,0.6,2.2c0.4,0.7,0.9,1.2,1.6,1.6
				c0.7,0.4,1.4,0.6,2.1,0.6c0.8,0,1.5-0.2,2.1-0.6c0.7-0.4,1.2-0.9,1.6-1.6c0.4-0.7,0.6-1.4,0.6-2.2c0-1.2-0.4-2.3-1.3-3.1
				C330.7,85.4,329.7,85,328.5,85z"/>
			<path id="XMLID_45_" class="st1" d="M343.5,83.9h1.4v1.6c0.4-0.6,0.9-1.1,1.4-1.4c0.5-0.3,1-0.5,1.5-0.5c0.4,0,0.8,0.1,1.3,0.4
				l-0.7,1.2c-0.3-0.1-0.5-0.2-0.7-0.2c-0.5,0-0.9,0.2-1.4,0.6c-0.4,0.4-0.8,1-1,1.8c-0.2,0.6-0.3,1.9-0.3,3.8v3.7h-1.4V83.9z"/>
			<path id="XMLID_47_" class="st1" d="M364.2,79.7l-6.1,17.2h-1.5l6.1-17.2H364.2z"/>
			<path id="XMLID_49_" class="st1" d="M384.5,79.7v15.1h-1.4V93c-0.6,0.7-1.3,1.3-2,1.6c-0.7,0.4-1.5,0.5-2.4,0.5
				c-1.5,0-2.9-0.6-4-1.7c-1.1-1.1-1.6-2.5-1.6-4.1c0-1.6,0.6-2.9,1.7-4c1.1-1.1,2.4-1.7,4-1.7c0.9,0,1.7,0.2,2.4,0.6
				c0.7,0.4,1.4,1,1.9,1.7v-6.2H384.5z M378.9,85c-0.8,0-1.5,0.2-2.2,0.6c-0.7,0.4-1.2,0.9-1.6,1.6c-0.4,0.7-0.6,1.4-0.6,2.2
				c0,0.8,0.2,1.5,0.6,2.2c0.4,0.7,0.9,1.3,1.6,1.6c0.7,0.4,1.4,0.6,2.1,0.6c0.8,0,1.5-0.2,2.2-0.6c0.7-0.4,1.2-0.9,1.6-1.6
				c0.4-0.7,0.6-1.4,0.6-2.2c0-1.3-0.4-2.3-1.3-3.2C381.1,85.4,380.1,85,378.9,85z"/>
			<path id="XMLID_52_" class="st1" d="M404.1,91.2l1.2,0.6c-0.4,0.8-0.8,1.4-1.3,1.8c-0.5,0.5-1.1,0.8-1.7,1.1
				c-0.6,0.3-1.4,0.4-2.2,0.4c-1.8,0-3.2-0.6-4.2-1.8c-1-1.2-1.5-2.5-1.5-4c0-1.4,0.4-2.6,1.3-3.7c1.1-1.4,2.5-2.1,4.3-2.1
				c1.9,0,3.3,0.7,4.5,2.1c0.8,1,1.2,2.2,1.2,3.7h-9.8c0,1.3,0.4,2.3,1.2,3.1c0.8,0.8,1.8,1.2,2.9,1.2c0.6,0,1.1-0.1,1.6-0.3
				c0.5-0.2,1-0.5,1.3-0.8C403.3,92.4,403.7,91.9,404.1,91.2z M404.1,88.3c-0.2-0.7-0.5-1.4-0.8-1.8c-0.4-0.4-0.8-0.8-1.4-1.1
				c-0.6-0.3-1.2-0.4-1.9-0.4c-1.1,0-2,0.3-2.8,1c-0.6,0.5-1,1.3-1.3,2.3H404.1z"/>
			<path id="XMLID_55_" class="st1" d="M414.4,83.9h1.5l3.7,8l3.6-8h1.5l-5,10.9h-0.3L414.4,83.9z"/>
			<path id="XMLID_57_" class="st1" d="M443.2,91.2l1.2,0.6c-0.4,0.8-0.8,1.4-1.3,1.8c-0.5,0.5-1.1,0.8-1.7,1.1
				c-0.6,0.3-1.4,0.4-2.2,0.4c-1.8,0-3.2-0.6-4.2-1.8c-1-1.2-1.5-2.5-1.5-4c0-1.4,0.4-2.6,1.3-3.7c1.1-1.4,2.5-2.1,4.3-2.1
				c1.9,0,3.4,0.7,4.5,2.1c0.8,1,1.2,2.2,1.2,3.7H435c0,1.3,0.4,2.3,1.2,3.1c0.8,0.8,1.8,1.2,2.9,1.2c0.6,0,1.1-0.1,1.6-0.3
				c0.5-0.2,1-0.5,1.3-0.8C442.4,92.4,442.8,91.9,443.2,91.2z M443.2,88.3c-0.2-0.7-0.5-1.4-0.8-1.8c-0.4-0.4-0.8-0.8-1.4-1.1
				c-0.6-0.3-1.2-0.4-1.9-0.4c-1.1,0-2,0.3-2.8,1c-0.6,0.5-1,1.3-1.3,2.3H443.2z"/>
			<path id="XMLID_60_" class="st1" d="M454.4,79.7h1.4v15.1h-1.4V79.7z"/>
			<path id="XMLID_62_" class="st1" d="M471.1,83.6c1.7,0,3.1,0.6,4.2,1.8c1,1.1,1.5,2.4,1.5,3.9c0,1.5-0.5,2.9-1.6,4
				c-1.1,1.1-2.4,1.7-4.1,1.7c-1.7,0-3-0.6-4.1-1.7c-1.1-1.1-1.6-2.5-1.6-4c0-1.5,0.5-2.8,1.5-3.9C468,84.2,469.4,83.6,471.1,83.6z
				 M471.1,85c-1.2,0-2.2,0.4-3,1.3c-0.8,0.9-1.3,1.9-1.3,3.1c0,0.8,0.2,1.5,0.6,2.2c0.4,0.7,0.9,1.2,1.6,1.6
				c0.6,0.4,1.4,0.6,2.2,0.6c0.8,0,1.5-0.2,2.1-0.6c0.7-0.4,1.2-0.9,1.6-1.6c0.4-0.7,0.6-1.4,0.6-2.2c0-1.2-0.4-2.3-1.3-3.1
				C473.2,85.4,472.2,85,471.1,85z"/>
			<path id="XMLID_65_" class="st1" d="M486.6,83.9h1.4v2c0.6-0.8,1.2-1.3,1.9-1.7c0.7-0.4,1.5-0.6,2.4-0.6c1.6,0,2.9,0.6,4,1.7
				c1.1,1.1,1.7,2.5,1.7,4c0,1.6-0.5,3-1.6,4.1c-1.1,1.1-2.4,1.7-4,1.7c-0.9,0-1.7-0.2-2.4-0.5c-0.7-0.4-1.4-0.9-2-1.6v5.9h-1.4
				V83.9z M492.2,85c-1.2,0-2.2,0.4-3.1,1.3c-0.8,0.8-1.2,1.9-1.2,3.2c0,0.8,0.2,1.6,0.6,2.2c0.4,0.7,0.9,1.2,1.6,1.6
				c0.7,0.4,1.4,0.6,2.2,0.6c0.8,0,1.5-0.2,2.1-0.6c0.7-0.4,1.2-0.9,1.6-1.6c0.4-0.7,0.6-1.4,0.6-2.2c0-0.8-0.2-1.5-0.6-2.2
				c-0.4-0.7-0.9-1.2-1.6-1.6C493.7,85.2,493,85,492.2,85z"/>
			<path id="XMLID_68_" class="st1" d="M517,91.2l1.2,0.6c-0.4,0.8-0.8,1.4-1.3,1.8c-0.5,0.5-1.1,0.8-1.7,1.1
				c-0.6,0.3-1.4,0.4-2.2,0.4c-1.8,0-3.2-0.6-4.2-1.8c-1-1.2-1.5-2.5-1.5-4c0-1.4,0.4-2.6,1.3-3.7c1.1-1.4,2.5-2.1,4.3-2.1
				c1.9,0,3.3,0.7,4.5,2.1c0.8,1,1.2,2.2,1.2,3.7h-9.8c0,1.3,0.4,2.3,1.2,3.1c0.8,0.8,1.8,1.2,2.9,1.2c0.6,0,1.1-0.1,1.6-0.3
				c0.5-0.2,1-0.5,1.3-0.8C516.2,92.4,516.6,91.9,517,91.2z M517,88.3c-0.2-0.7-0.5-1.4-0.8-1.8c-0.4-0.4-0.8-0.8-1.4-1.1
				c-0.6-0.3-1.2-0.4-1.9-0.4c-1.1,0-2,0.3-2.8,1c-0.6,0.5-1,1.3-1.3,2.3H517z"/>
			<path id="XMLID_71_" class="st1" d="M527.8,83.9h1.4v1.6c0.4-0.6,0.9-1.1,1.4-1.4c0.5-0.3,1-0.5,1.5-0.5c0.4,0,0.8,0.1,1.3,0.4
				l-0.7,1.2c-0.3-0.1-0.5-0.2-0.7-0.2c-0.5,0-0.9,0.2-1.4,0.6c-0.4,0.4-0.8,1-1,1.8c-0.2,0.6-0.3,1.9-0.3,3.8v3.7h-1.4V83.9z"/>
			<path id="XMLID_73_" class="st1" d="M541.2,91.4l8.4-3.9l-8.4-3.9v-1.5l10.4,4.7v1.3l-10.4,4.7V91.4z"/>
		</g>
		<g id="XMLID_75_">
			<path id="XMLID_76_" class="st1" d="M122,33.8h4.7v25.1c0,6.8-2.8,10.2-8.5,10.2c-2,0-3.9-0.5-5.8-1.5l2.3-3.8
				c1.5,0.5,2.7,0.8,3.7,0.8c2.5,0,3.7-1.6,3.7-4.9V33.8z"/>
			<path id="XMLID_78_" class="st1" d="M135.4,33.7h4.7v13.2h16.4V33.7h4.6V68h-4.6V51.5H140V68h-4.7V33.7z"/>
			<path id="XMLID_80_" class="st1" d="M167,50.6c0-4.9,1.9-9.2,5.6-12.7c3.7-3.5,8.2-5.3,13.4-5.3c5.1,0,9.5,1.8,13.2,5.3
				c3.7,3.6,5.5,7.8,5.5,12.7c0,5.2-1.8,9.5-5.5,13.1c-3.6,3.6-8.1,5.4-13.4,5.4c-5.2,0-9.7-1.8-13.4-5.4
				C168.9,60.1,167,55.8,167,50.6z M199.8,50.8c0-3.8-1.4-7-4.1-9.5c-2.7-2.6-6.1-3.9-10.1-3.9c-3.8,0-7,1.3-9.7,3.9
				c-2.7,2.6-4,5.8-4,9.5c0,3.7,1.4,6.9,4.2,9.5c2.8,2.6,6.2,3.9,10.2,3.9c3.7,0,6.9-1.3,9.6-4C198.5,57.6,199.8,54.5,199.8,50.8z"
				/>
			<path id="XMLID_83_" class="st1" d="M210.6,32.3l25.3,26V33.7h4.7v35.8l-25.3-25.9V68h-4.7V32.3z"/>
			<path id="XMLID_85_" class="st1" d="M247.4,32.3l25.3,26V33.7h4.7v35.8L252,43.6V68h-4.7V32.3z"/>
			<path id="XMLID_87_" class="st1" d="M282.3,33.7h5.2l8.4,13.8l8.3-13.8h5.2l-11.2,18.5V68h-4.7V52.3L282.3,33.7z"/>
			<path id="XMLID_89_" class="st1" d="M342.7,32.4L358.9,68H354l-4-8.8h-14.5l-3.9,8.8h-4.9L342.7,32.4z M342.7,43.1l-5.5,12.2h11
				L342.7,43.1z"/>
			<path id="XMLID_92_" class="st1" d="M394.6,39.2l-3.5,3.4c-3.5-3.4-7.5-5.1-12.1-5.1c-4,0-7.4,1.3-10,3.9c-2.7,2.6-4,5.8-4,9.7
				c0,3.4,1.3,6.4,3.9,9.1c2.6,2.7,6.2,4.1,10.7,4.1c6.8,0,11.1-3,12.9-8.9h-9.3v-4.7h14.6c0,2.3-0.2,4.2-0.5,5.6
				c-0.3,1.4-1,2.9-1.9,4.6c-1,1.7-2.3,3.2-3.9,4.5c-1.6,1.3-3.4,2.3-5.3,2.9c-1.9,0.6-4.1,0.9-6.7,0.9c-5.9,0-10.6-1.9-14.2-5.6
				c-3.5-3.7-5.3-8-5.3-12.7c0-5,1.8-9.3,5.4-12.9c3.6-3.5,8-5.3,13.1-5.3c3,0,5.8,0.5,8.3,1.4C389.4,34.9,392,36.7,394.6,39.2z"/>
			<path id="XMLID_94_" class="st1" d="M403.8,33.8h4.7v21.1c0,3.1,0.8,5.5,2.3,7.2c1.5,1.7,3.6,2.6,6.4,2.6c2.7,0,4.8-0.8,6.4-2.4
				c1.5-1.6,2.3-3.8,2.3-6.6V33.8h4.7v21.5c0,4.2-1.2,7.5-3.6,10.1c-2.4,2.5-5.6,3.8-9.6,3.8c-4.1,0-7.3-1.3-9.8-3.8
				c-2.4-2.5-3.7-6.3-3.7-11.3V33.8z"/>
			<path id="XMLID_96_" class="st1" d="M437.3,33.7h8.3c6.6,0,11.5,1.7,14.7,5.2c3.2,3.5,4.8,7.4,4.8,11.9c0,4.5-1.7,8.5-5,11.9
				c-3.3,3.5-8.1,5.2-14.5,5.2h-8.4V33.7z M442,38.3v25.1h0.3c3.5,0,6.1-0.2,7.9-0.5c1.7-0.3,3.4-1,5-2.1c1.6-1.1,2.8-2.5,3.8-4.2
				c0.9-1.8,1.4-3.7,1.4-5.8c0-2.6-0.7-5-2.2-7.1c-1.5-2.1-3.3-3.6-5.3-4.3c-2.1-0.7-4.9-1.1-8.3-1.1H442z"/>
			<path id="XMLID_99_" class="st1" d="M470.1,33.7h19v4.7h-14.4v8.6h14.4v4.6h-14.4v11.8h14.4V68h-19V33.7z"/>
			<path id="XMLID_101_" class="st1" d="M495.3,33.7h4.6v29.6h11.2V68h-15.8V33.7z"/>
			<path id="XMLID_103_" class="st1" d="M513.8,50.6c0-4.9,1.9-9.2,5.6-12.7c3.7-3.5,8.2-5.3,13.4-5.3c5.1,0,9.5,1.8,13.2,5.3
				c3.7,3.6,5.5,7.8,5.5,12.7c0,5.2-1.8,9.5-5.5,13.1c-3.6,3.6-8.1,5.4-13.4,5.4c-5.2,0-9.7-1.8-13.4-5.4
				C515.7,60.1,513.8,55.8,513.8,50.6z M546.6,50.8c0-3.8-1.4-7-4.1-9.5c-2.7-2.6-6.1-3.9-10-3.9c-3.8,0-7,1.3-9.7,3.9
				c-2.7,2.6-4,5.8-4,9.5c0,3.7,1.4,6.9,4.1,9.5c2.8,2.6,6.2,3.9,10.2,3.9c3.7,0,6.9-1.3,9.6-4C545.3,57.6,546.6,54.5,546.6,50.8z"
				/>
		</g>
	</g>
</g>
</svg>
